<?xml version="1.0" encoding="UTF-8"?>
<svg xmlns="http://www.w3.org/2000/svg" width="130" height="130" viewBox="0 0 130 130" fill="none">
  <circle cx="78.7667" cy="71.2423" r="30.2599" fill="#FFE073"></circle>
  <path fill-rule="evenodd" clip-rule="evenodd" d="M28.0068 29.9824C27.3193 29.0723 26.5668 28.6081 25.5068 28.6081C24.4469 28.6081 23.6536 29.3357 23.0068 29.9824C22.5068 30.4824 21.5068 30.4715 21.0068 29.9824C20.5068 29.4933 19.3425 28.6081 17.9929 28.6081C16.6432 28.6081 15.3203 29.4228 14.3964 30.4715C13.4725 31.5202 12.9747 32.8767 13.001 34.2741V50.4704C13.0006 52.5704 13.7257 54.606 15.0537 56.2327C16.3816 57.8595 18.2309 58.9775 20.2884 59.3975V96.0168C20.2884 97.4664 20.8643 98.8566 21.8893 99.8816C22.9142 100.907 24.3044 101.482 25.754 101.482C27.2036 101.482 28.5938 100.907 29.6187 99.8816C30.6437 98.8566 31.2196 97.4664 31.2196 96.0168V59.3975C33.2771 58.9775 35.1264 57.8595 36.4543 56.2327C37.7823 54.606 38.5074 52.5704 38.507 50.4704V34.2741C38.5333 32.8767 38.0355 31.5202 37.1116 30.4715C36.1877 29.4228 35.0068 28.6081 33.5151 28.6081C32.0234 28.6081 31.091 29.3983 30.5068 29.9824C30.0068 30.4824 29.3968 31.3724 28.0068 29.9824ZM22 47.5904C20.9478 47.5904 19.9722 46.5118 19.9722 45.3227L20 34.0904C19.9722 32.9953 18.9639 32.2518 18.3026 32.2518C17.334 32.4135 16.6133 33.2925 16.6447 34.2741V50.4704C16.6447 51.92 17.2205 53.3101 18.2455 54.3351C19.2705 55.3601 20.6607 55.936 22.1103 55.936C22.5935 55.936 23.0569 56.1279 23.3985 56.4696C23.7402 56.8112 23.9321 57.2746 23.9321 57.7578V96.0168C23.9321 97.0091 24.7617 97.8387 25.754 97.8387C26.7463 97.8387 27.5759 97.0091 27.5759 96.0168V57.7578C27.5759 57.2746 27.7678 56.8112 28.1095 56.4696C28.4511 56.1279 28.9145 55.936 29.3977 55.936C30.8473 55.936 32.2375 55.3601 33.2625 54.3351C34.2875 53.3101 34.8633 51.92 34.8633 50.4704V34.5904C34.8947 33.6089 34.0068 32.2518 32.8279 32.2518C31.3092 32.2518 31 33.4824 31 34.5904V45.3227C31 46.5118 30.32 47.1819 29.2678 47.1819C28.2156 47.1819 26.9438 46.5118 26.9438 45.3227V34.5904C27 33.4067 26.5068 32.2518 25.5068 32.2518C24.5068 32.2518 23.8799 33.4067 24 34.5904V45.0904C24 46.2795 23.0522 47.5904 22 47.5904Z" fill="#273350"></path>
  <path d="M65.0226 68.0815C63.7686 68.0888 62.8384 66.7397 63.3303 65.559C63.6448 64.8041 64.4611 64.2341 65.0227 63.6725V60.7935C65.0227 59.8012 65.8522 58.9717 66.8445 58.9717C67.5937 58.9717 68.283 59.4492 68.5479 60.1473L78.3039 50.3913C79.0085 49.6867 80.1864 49.6867 80.891 50.3913C81.5955 51.0958 81.5955 52.2738 80.891 52.9783L68.6664 65.2029V77.1903C68.6664 78.1826 67.8368 79.0121 66.8445 79.0121C65.8522 79.0121 65.0227 78.1826 65.0227 77.1903L65.0226 68.0815Z" fill="#273350"></path>
  <path fill-rule="evenodd" clip-rule="evenodd" d="M66.8447 91.7651C61.4398 91.7651 56.1562 90.1624 51.6621 87.1596C47.1681 84.1567 43.6654 79.8887 41.597 74.8952C39.5287 69.9017 38.9875 64.4069 40.0419 59.1059C41.0964 53.8048 43.6991 48.9354 47.521 45.1135C51.3428 41.2917 56.2122 38.6889 61.5133 37.6345C66.8144 36.58 72.3091 37.1212 77.3027 39.1896C82.2962 41.258 86.5642 44.7607 89.567 49.2547C92.5699 53.7488 94.1726 59.0323 94.1726 64.4373C94.1726 71.6851 91.2934 78.636 86.1684 83.761C81.0435 88.886 74.0925 91.7651 66.8447 91.7651ZM66.8447 40.7531C57.367 40.7531 48.5904 46.6174 44.9634 55.3737C41.3364 64.13 43.3957 74.4827 50.0975 81.1845C56.7993 87.8863 67.1519 89.9456 75.9082 86.3186C84.6645 82.6916 90.5289 73.915 90.5289 64.4373C90.5289 51.5373 79.7447 40.7531 66.8447 40.7531Z" fill="#273350"></path>
  <path fill-rule="evenodd" clip-rule="evenodd" d="M101.239 99.2735C102.264 100.299 103.654 100.874 105.103 100.874C106.553 100.874 107.943 100.299 108.968 99.2735C109.993 98.2485 110.569 96.8583 110.569 95.4088V57.7327C112.748 56.6991 114.589 55.0686 115.879 53.0306C117.169 50.9925 117.855 48.6305 117.856 46.2186C117.856 38.7672 113.32 28 105.103 28C96.8868 28 92.3503 38.7672 92.3503 46.2186C92.3519 48.6305 93.0374 50.9925 94.3273 53.0306C95.6172 55.0686 97.4586 56.6991 99.6378 57.7327V95.4088C99.6378 96.8583 100.214 98.2485 101.239 99.2735ZM95.994 46.2186C95.994 41.1356 99.1276 31.6437 105.103 31.6437C111.079 31.6437 114.213 41.1356 114.213 46.2186C114.212 48.1003 113.628 49.9356 112.541 51.4721C111.455 53.0086 109.92 54.171 108.146 54.7995C107.79 54.9238 107.482 55.1552 107.263 55.4619C107.045 55.7686 106.927 56.1355 106.925 56.5121V95.4088C106.925 96.4011 106.096 97.2306 105.103 97.2306C104.142 97.2172 103.266 96.3917 103.281 95.4088V56.5121C103.28 56.1355 103.162 55.7686 102.943 55.4619C102.725 55.1552 102.416 54.9238 102.061 54.7995C100.287 54.171 98.7516 53.0086 97.6653 51.4721C96.5789 49.9356 95.9951 48.1003 95.994 46.2186Z" fill="#273350"></path>
  <path fill-rule="evenodd" clip-rule="evenodd" d="M28.0068 29.9824C27.3193 29.0723 26.5668 28.6081 25.5068 28.6081C24.4469 28.6081 23.6536 29.3357 23.0068 29.9824C22.5068 30.4824 21.5068 30.4715 21.0068 29.9824C20.5068 29.4933 19.3425 28.6081 17.9929 28.6081C16.6432 28.6081 15.3203 29.4228 14.3964 30.4715C13.4725 31.5202 12.9747 32.8767 13.001 34.2741V50.4704C13.0006 52.5704 13.7257 54.606 15.0537 56.2327C16.3816 57.8595 18.2309 58.9775 20.2884 59.3975V96.0168C20.2884 97.4664 20.8643 98.8566 21.8893 99.8816C22.9142 100.907 24.3044 101.482 25.754 101.482C27.2036 101.482 28.5938 100.907 29.6187 99.8816C30.6437 98.8566 31.2196 97.4664 31.2196 96.0168V59.3975C33.2771 58.9775 35.1264 57.8595 36.4543 56.2327C37.7823 54.606 38.5074 52.5704 38.507 50.4704V34.2741C38.5333 32.8767 38.0355 31.5202 37.1116 30.4715C36.1877 29.4228 35.0068 28.6081 33.5151 28.6081C32.0234 28.6081 31.091 29.3983 30.5068 29.9824C30.0068 30.4824 29.3968 31.3724 28.0068 29.9824ZM22 47.5904C20.9478 47.5904 19.9722 46.5118 19.9722 45.3227L20 34.0904C19.9722 32.9953 18.9639 32.2518 18.3026 32.2518C17.334 32.4135 16.6133 33.2925 16.6447 34.2741V50.4704C16.6447 51.92 17.2205 53.3101 18.2455 54.3351C19.2705 55.3601 20.6607 55.936 22.1103 55.936C22.5935 55.936 23.0569 56.1279 23.3985 56.4696C23.7402 56.8112 23.9321 57.2746 23.9321 57.7578V96.0168C23.9321 97.0091 24.7617 97.8387 25.754 97.8387C26.7463 97.8387 27.5759 97.0091 27.5759 96.0168V57.7578C27.5759 57.2746 27.7678 56.8112 28.1095 56.4696C28.4511 56.1279 28.9145 55.936 29.3977 55.936C30.8473 55.936 32.2375 55.3601 33.2625 54.3351C34.2875 53.3101 34.8633 51.92 34.8633 50.4704V34.5904C34.8947 33.6089 34.0068 32.2518 32.8279 32.2518C31.3092 32.2518 31 33.4824 31 34.5904V45.3227C31 46.5118 30.32 47.1819 29.2678 47.1819C28.2156 47.1819 26.9438 46.5118 26.9438 45.3227V34.5904C27 33.4067 26.5068 32.2518 25.5068 32.2518C24.5068 32.2518 23.8799 33.4067 24 34.5904V45.0904C24 46.2795 23.0522 47.5904 22 47.5904Z" stroke="#273350"></path>
  <path d="M65.0226 68.0815C63.7686 68.0888 62.8384 66.7397 63.3303 65.559C63.6448 64.8041 64.4611 64.2341 65.0227 63.6725V60.7935C65.0227 59.8012 65.8522 58.9717 66.8445 58.9717C67.5937 58.9717 68.283 59.4492 68.5479 60.1473L78.3039 50.3913C79.0085 49.6867 80.1864 49.6867 80.891 50.3913C81.5955 51.0958 81.5955 52.2738 80.891 52.9783L68.6664 65.2029V77.1903C68.6664 78.1826 67.8368 79.0121 66.8445 79.0121C65.8522 79.0121 65.0227 78.1826 65.0227 77.1903L65.0226 68.0815Z" stroke="#273350"></path>
  <path fill-rule="evenodd" clip-rule="evenodd" d="M66.8447 91.7651C61.4398 91.7651 56.1562 90.1624 51.6621 87.1596C47.1681 84.1567 43.6654 79.8887 41.597 74.8952C39.5287 69.9017 38.9875 64.4069 40.0419 59.1059C41.0964 53.8048 43.6991 48.9354 47.521 45.1135C51.3428 41.2917 56.2122 38.6889 61.5133 37.6345C66.8144 36.58 72.3091 37.1212 77.3027 39.1896C82.2962 41.258 86.5642 44.7607 89.567 49.2547C92.5699 53.7488 94.1726 59.0323 94.1726 64.4373C94.1726 71.6851 91.2934 78.636 86.1684 83.761C81.0435 88.886 74.0925 91.7651 66.8447 91.7651ZM66.8447 40.7531C57.367 40.7531 48.5904 46.6174 44.9634 55.3737C41.3364 64.13 43.3957 74.4827 50.0975 81.1845C56.7993 87.8863 67.1519 89.9456 75.9082 86.3186C84.6645 82.6916 90.5289 73.915 90.5289 64.4373C90.5289 51.5373 79.7447 40.7531 66.8447 40.7531Z" stroke="#273350"></path>
  <path fill-rule="evenodd" clip-rule="evenodd" d="M101.239 99.2735C102.264 100.299 103.654 100.874 105.103 100.874C106.553 100.874 107.943 100.299 108.968 99.2735C109.993 98.2485 110.569 96.8583 110.569 95.4088V57.7327C112.748 56.6991 114.589 55.0686 115.879 53.0306C117.169 50.9925 117.855 48.6305 117.856 46.2186C117.856 38.7672 113.32 28 105.103 28C96.8868 28 92.3503 38.7672 92.3503 46.2186C92.3519 48.6305 93.0374 50.9925 94.3273 53.0306C95.6172 55.0686 97.4586 56.6991 99.6378 57.7327V95.4088C99.6378 96.8583 100.214 98.2485 101.239 99.2735ZM95.994 46.2186C95.994 41.1356 99.1276 31.6437 105.103 31.6437C111.079 31.6437 114.213 41.1356 114.213 46.2186C114.212 48.1003 113.628 49.9356 112.541 51.4721C111.455 53.0086 109.92 54.171 108.146 54.7995C107.79 54.9238 107.482 55.1552 107.263 55.4619C107.045 55.7686 106.927 56.1355 106.925 56.5121V95.4088C106.925 96.4011 106.096 97.2306 105.103 97.2306C104.142 97.2172 103.266 96.3917 103.281 95.4088V56.5121C103.28 56.1355 103.162 55.7686 102.943 55.4619C102.725 55.1552 102.416 54.9238 102.061 54.7995C100.287 54.171 98.7516 53.0086 97.6653 51.4721C96.5789 49.9356 95.9951 48.1003 95.994 46.2186Z" stroke="#273350"></path>
</svg>
