<?xml version="1.0"?>
<svg xmlns="http://www.w3.org/2000/svg" width="131" height="131" viewBox="0 0 131 131" fill="" data-library="gosweb_icons_1" data-icon="call_130" data-color="">
    <ellipse cx="77.2478" cy="74.0656" rx="27.0833" ry="27.0833" transform="rotate(0.169302 77.2478 74.0656)" fill="#FFE073"/>
    <path d="M36.9276 94.0404L36.9454 94.0579L37.0185 94.1319C46.427 103.441 59.0565 108.774 72.2899 109.025C76.9376 109.08 81.5547 108.268 85.9048 106.631C86.7992 106.277 87.5668 105.663 88.1084 104.868C88.6501 104.073 88.9409 103.134 88.9432 102.172L88.9618 95.8543C88.9615 94.7539 88.6766 93.6722 88.1349 92.7144C87.5932 91.7565 86.813 90.955 85.8701 90.3877L74.5348 83.6167C73.6368 83.075 72.5618 82.9082 71.5419 83.1524C70.5221 83.3966 69.6392 84.0322 69.084 84.9219L64.3462 92.4538C63.9817 93.0294 63.1202 92.8257 62.9521 92.7787C57.3499 91.2293 52.6271 88.3007 47.6388 83.2825C42.6514 78.2653 39.7502 73.5258 38.2335 67.9134C38.187 67.7445 37.9884 66.8824 38.5666 66.5222C39.7156 65.806 41.2555 64.8512 42.7577 63.9198L46.1238 61.831C47.0183 61.2809 47.6601 60.4006 47.9103 59.3807C48.1605 58.3608 47.999 57.2834 47.4607 56.3817L40.7576 45.0079C40.1956 44.0626 39.3989 43.2786 38.4447 42.732C37.4905 42.1853 36.4112 41.8945 35.3115 41.8877L28.9932 41.869C28.032 41.8653 27.0918 42.15 26.2941 42.6863C25.4964 43.2227 24.8781 43.986 24.5189 44.8776C18.5478 60.0231 23.6754 80.5805 36.7092 93.8198L36.9276 94.0404ZM27.7453 46.144C27.8468 45.9006 28.019 45.6933 28.2397 45.5489C28.4603 45.4045 28.7193 45.3296 28.983 45.334L35.3013 45.3527C35.8006 45.3561 36.2906 45.4884 36.7239 45.7367C37.1571 45.985 37.5189 46.341 37.7742 46.7701L44.4726 58.1374C44.5477 58.2606 44.5712 58.4084 44.538 58.5488C44.5049 58.6892 44.4178 58.8109 44.2955 58.8875L40.9323 60.9749C39.4273 61.9076 37.8846 62.8638 36.7356 63.5805C35.8961 64.1305 35.2605 64.941 34.9267 65.8874C34.5928 66.8339 34.5792 67.8638 34.8879 68.8187C36.5478 74.9594 39.8194 80.3316 45.1817 85.726C50.545 91.1204 55.8975 94.4232 62.0284 96.1189C62.9815 96.4323 64.0111 96.4244 64.9593 96.0964C65.9075 95.7684 66.7219 95.1385 67.2776 94.3031L72.0172 86.7675C72.0942 86.6471 72.2153 86.5616 72.3545 86.5292C72.4937 86.4969 72.6401 86.5203 72.7623 86.5944L84.0911 93.3611C84.5194 93.6188 84.8739 93.9828 85.1202 94.4179C85.3665 94.8529 85.4962 95.3442 85.4967 95.8441L85.478 102.162C85.4806 102.426 85.4036 102.686 85.2572 102.906C85.1107 103.126 84.9014 103.298 84.6565 103.398C70.6764 108.816 51.6683 103.874 39.4334 91.6456C39.395 91.6022 39.3566 91.5612 39.3172 91.5211L39.1719 91.3816C27.0595 79.0737 22.2516 60.0759 27.7453 46.144ZM107.085 22.4619L60.685 22.3248C60.4575 22.3241 60.232 22.3682 60.0215 22.4547C59.8111 22.5411 59.6197 22.6682 59.4583 22.8286C59.297 22.989 59.1688 23.1796 59.0811 23.3895C58.9934 23.5995 58.9479 23.8247 58.9473 24.0522L58.8449 58.7063C58.8442 58.9338 58.8883 59.1592 58.9748 59.3697C59.0612 59.5802 59.1883 59.7715 59.3487 59.9329C59.5091 60.0943 59.6997 60.2224 59.9097 60.3101C60.1196 60.3978 60.3448 60.4433 60.5723 60.4439L62.9019 60.4508L58.9476 69.7791C58.8078 70.1091 58.7738 70.4743 58.8502 70.8245C58.9266 71.1746 59.1097 71.4925 59.3743 71.7342C59.6388 71.976 59.9718 72.1298 60.3274 72.1745C60.6831 72.2191 61.0438 72.1524 61.3599 71.9836L82.8231 60.5097L106.972 60.581C107.199 60.5817 107.425 60.5376 107.635 60.4512C107.846 60.3647 108.037 60.2377 108.199 60.0773C108.36 59.9168 108.488 59.7262 108.576 59.5163C108.664 59.3063 108.709 59.0811 108.71 58.8536L108.812 24.1995C108.813 23.972 108.769 23.7466 108.682 23.5361C108.596 23.3256 108.469 23.1343 108.308 22.9729C108.148 22.8115 107.957 22.6834 107.747 22.5957C107.537 22.508 107.312 22.4626 107.085 22.4619ZM105.25 57.1109L82.3962 57.0433C82.1095 57.0425 81.827 57.1127 81.574 57.2477L64.0531 66.6139L67.1109 59.4024C67.2224 59.1393 67.2672 58.8528 67.2411 58.5683C67.2151 58.2837 67.1191 58.0101 66.9617 57.7716C66.8043 57.5332 66.5904 57.3373 66.339 57.2016C66.0876 57.0658 65.8065 56.9943 65.5208 56.9935L62.3151 56.984L62.4073 25.795L105.342 25.9218L105.25 57.1109ZM97.2196 37.9306L70.4583 37.8515L70.4686 34.3865L97.2299 34.4656L97.2196 37.9306ZM97.1884 48.5193L70.4271 48.4403L70.4373 44.9753L97.1986 45.0543L97.1884 48.5193Z" fill="#273350" stroke="#273350" stroke-width="0.5"/>
</svg>
