<svg width="130" height="130" viewBox="0 0 130 130" fill="none" xmlns="http://www.w3.org/2000/svg">
<circle cx="56.3321" cy="83.6805" r="27.0833" fill="#FFE073"/>
<path d="M104.684 46.1733C106.764 46.1733 106.64 50.0883 104.684 50.0883H62.0133C59.9334 50.0883 60.058 46.1733 62.0133 46.1733H104.684Z" fill="#273350"/>
<path d="M62.0133 56.5273C60.0396 56.5273 59.9379 60.4423 62.0133 60.4423H104.684C106.764 60.4423 106.64 56.5273 104.684 56.5273H62.0133Z" fill="#273350"/>
<path d="M62.0133 66.8818H104.684C106.64 66.8818 106.764 70.7968 104.684 70.7968H62.0133C59.9379 70.7968 60.0396 66.8818 62.0133 66.8818Z" fill="#273350"/>
<path d="M62.0133 77.2358C60.0396 77.2358 59.9379 81.1508 62.0133 81.1508H104.684C106.76 81.1508 106.658 77.2358 104.684 77.2358H62.0133Z" fill="#273350"/>
<path d="M62.0133 87.5903H104.684C106.706 87.5903 106.706 91.5053 104.684 91.5053H62.0133C59.9917 91.5053 59.9917 87.5903 62.0133 87.5903Z" fill="#273350"/>
<path fill-rule="evenodd" clip-rule="evenodd" d="M113.004 105.756C114.378 105.756 115.496 104.635 115.496 103.258V38.7153C115.496 37.8431 115.023 37.398 114.678 37.0731C114.618 37.0175 102.931 25.8718 102.931 25.8718C102.485 25.4431 102.022 25 101.16 25H53.1088C51.7345 25 50.6163 26.118 50.6163 27.4923V35.1455L34.0333 37.9881C32.2451 38.3019 31.7716 40.2708 32.0405 41.8213L32.7199 45.783C27.3811 47.5798 21.9045 49.4314 16.6158 51.3311C15.0478 51.9044 14.6263 54.0138 15.1414 55.4662L25.7683 85.0073C26.579 87.2618 30.3078 85.2353 29.5113 83.0207L19.3603 54.8025C23.9831 53.1513 28.7514 51.5325 33.4355 49.9545L44.1516 112.458C44.4548 114.187 46.4551 114.708 47.9849 114.456L68.5558 110.928L42.8665 120.163L31.7472 89.2353C30.8807 86.8246 27.1986 88.9799 28.0042 91.2215L39.3973 122.911C39.9543 124.435 42.1008 124.903 43.5323 124.38L92.2631 106.864L98.7262 105.756H113.004ZM108.767 37.4182L101.852 30.8234C101.854 31.9951 101.136 36.3922 101.968 37.2213C103.01 38.2568 107.418 37.4182 108.767 37.4182ZM54.5313 101.84H111.581V41.3333C108.438 41.3336 105.295 41.3349 102.152 41.3349C99.8762 41.3349 97.9493 40.1783 97.9493 37.7229L97.9303 28.9147H54.5311V67.6734C54.5311 69.7488 50.6161 69.6471 50.6161 67.6734V39.2742L36.1577 41.7527L47.9171 110.339L74.6418 105.755H53.1088C51.7345 105.755 50.6163 104.635 50.6163 103.257V73.436C50.6163 71.4807 54.5313 71.3562 54.5313 73.436V101.84Z" fill="#273350"/>
</svg>
