<svg width="66" height="66" viewBox="0 0 66 66" fill="none" xmlns="http://www.w3.org/2000/svg">
    <path d="M56.4115 48.2146L56.4554 33.3428C56.4604 32.874 56.3524 32.4089 56.1379 31.9745C55.9233 31.5402 55.6064 31.1452 55.2055 30.8125C54.8046 30.4797 54.3278 30.2159 53.8026 30.0363C53.2774 29.8567 52.7143 29.7648 52.146 29.7661L4.78636 29.6261C4.21807 29.6215 3.65446 29.71 3.12822 29.8866C2.60197 30.0631 2.12356 30.3241 1.72072 30.6544C1.31789 30.9848 0.998653 31.3779 0.781526 31.8109C0.5644 32.244 0.453705 32.7085 0.455861 33.1773L0.411916 48.0492C0.40699 48.518 0.514938 48.9831 0.729501 49.4174C0.944064 49.8518 1.26097 50.2468 1.66185 50.5795C2.06272 50.9122 2.53958 51.176 3.06478 51.3556C3.58997 51.5353 4.15305 51.6271 4.72135 51.6259L52.081 51.7658C52.6493 51.7704 53.2129 51.6819 53.7391 51.5054C54.2654 51.3289 54.7438 51.0679 55.1466 50.7375C55.5495 50.4072 55.8687 50.0141 56.0858 49.581C56.303 49.1479 56.4137 48.6835 56.4115 48.2146Z" fill="#306AFD"/>
    <path d="M64.4935 15.1633L51.4976 2.09035C51.4009 1.98571 51.2834 1.90246 51.1526 1.84595C51.0218 1.78944 50.8807 1.76093 50.7382 1.76224L19.0863 1.66871C17.9761 1.67114 16.9116 2.11157 16.1242 2.8943C15.3369 3.67704 14.8902 4.73886 14.8812 5.84906L14.8197 26.639C14.8189 26.927 14.9325 27.2037 15.1356 27.408C15.3387 27.6123 15.6146 27.7275 15.9027 27.7284C16.1908 27.7292 16.4674 27.6156 16.6717 27.4125C16.876 27.2094 16.9913 26.9335 16.9921 26.6454L17.0536 5.85548C17.0552 5.31966 17.2695 4.80641 17.6495 4.42864C18.0295 4.05087 18.544 3.83953 19.0799 3.84112L49.6456 3.93144L49.6103 15.8797C49.6094 16.1677 49.723 16.4443 49.9261 16.6487C50.1292 16.853 50.4052 16.9682 50.6933 16.9691L62.6415 17.0044L62.5127 60.6045C62.5111 61.1403 62.2967 61.6536 61.9167 62.0313C61.5367 62.4091 61.0222 62.6204 60.4863 62.6189L18.9066 62.496C18.3707 62.4944 17.8575 62.28 17.4797 61.9C17.1019 61.52 16.8906 61.0055 16.8922 60.4697L16.9087 54.8866C16.9095 54.5985 16.7959 54.3219 16.5928 54.1176C16.3897 53.9133 16.1138 53.7981 15.8257 53.7972C15.5376 53.7964 15.261 53.91 15.0567 54.1131C14.8524 54.3162 14.7371 54.5921 14.7363 54.8802L14.7198 60.4633C14.7222 61.5735 15.1626 62.6379 15.9454 63.4253C16.7281 64.2127 17.7899 64.6594 18.9001 64.6684L60.4799 64.7913C61.5902 64.7888 62.6546 64.3484 63.442 63.5657C64.2294 62.7829 64.6761 61.7211 64.6851 60.6109L64.8171 15.9246C64.8193 15.7821 64.7916 15.6408 64.7358 15.5097C64.6801 15.3786 64.5976 15.2606 64.4935 15.1633ZM51.8134 5.48026L61.1055 14.8274L51.7859 14.7999L51.8134 5.48026Z" fill="#273350" stroke="#273350" stroke-width="0.7"/>
    <path d="M4.95563 34.4255L9.85161 34.44C11.0463 34.4435 12.1069 34.6813 13.0335 35.1534C13.9602 35.6148 14.6782 36.2729 15.1877 37.1278C15.6972 37.9719 15.9503 38.9487 15.947 40.058C15.9438 41.1673 15.6849 42.1479 15.1703 42.9997C14.6559 43.8409 13.9339 44.4948 13.0045 44.9613C12.0752 45.4173 11.0132 45.6435 9.81851 45.6399L4.92254 45.6255L4.95563 34.4255ZM9.72772 43.8797C10.549 43.8821 11.2695 43.7295 11.8891 43.422C12.5194 43.1039 13.0007 42.6573 13.333 42.0823C13.6761 41.4966 13.8488 40.8198 13.851 40.0518C13.8533 39.2838 13.6846 38.6113 13.345 38.0343C13.0161 37.4467 12.5374 36.9973 11.909 36.6861C11.2913 36.3642 10.5717 36.2021 9.75041 36.1997L7.03042 36.1917L7.00773 43.8716L9.72772 43.8797ZM23.3727 45.84C22.2314 45.8366 21.2028 45.5882 20.2869 45.0949C19.3711 44.5908 18.6531 43.9007 18.133 43.0245C17.613 42.1376 17.3546 41.1502 17.3578 40.0622C17.361 38.9742 17.6252 37.9936 18.1505 37.1205C18.6758 36.2367 19.3978 35.5509 20.3166 35.0629C21.2354 34.5643 22.2654 34.3167 23.4068 34.32C24.5481 34.3234 25.5767 34.5771 26.4925 35.0812C27.4084 35.5745 28.1264 36.2593 28.6465 37.1355C29.1666 38.0117 29.425 38.9992 29.4217 40.0978C29.4185 41.1965 29.1542 42.1824 28.629 43.0555C28.1037 43.9286 27.3817 44.6145 26.4629 45.1131C25.5441 45.6011 24.5141 45.8434 23.3727 45.84ZM23.3781 44.016C24.1248 44.0182 24.7973 43.8549 25.3956 43.526C25.9939 43.1864 26.4646 42.7184 26.8077 42.1221C27.1509 41.5151 27.3235 40.8383 27.3257 40.0916C27.3279 39.345 27.1593 38.6725 26.8197 38.0741C26.4802 37.4651 26.0122 36.9944 25.4159 36.662C24.8195 36.3189 24.148 36.1462 23.4014 36.144C22.6547 36.1418 21.9822 36.3105 21.3839 36.6501C20.7856 36.979 20.3149 37.4469 19.9717 38.0539C19.6286 38.6502 19.456 39.3217 19.4538 40.0684C19.4516 40.815 19.6202 41.4929 19.9598 42.1019C20.2993 42.7002 20.7673 43.1709 21.3636 43.514C21.96 43.8465 22.6315 44.0138 23.3781 44.016ZM36.7934 45.8796C35.6628 45.8763 34.6395 45.6279 33.7236 45.1346C32.8184 44.6306 32.1058 43.9405 31.5857 43.0642C31.0763 42.1881 30.8232 41.2006 30.8265 40.102C30.8297 39.0033 31.094 38.0174 31.6192 37.1443C32.1445 36.2712 32.8611 35.5906 33.7693 35.1027C34.6881 34.604 35.7128 34.3564 36.8435 34.3597C37.7608 34.3625 38.5977 34.5249 39.354 34.8472C40.1104 35.1694 40.749 35.6353 41.2699 36.2448L39.9222 37.5049C39.1141 36.6278 38.1181 36.1875 36.9341 36.184C36.1661 36.1817 35.4776 36.3504 34.8686 36.6899C34.2596 37.0188 33.7836 37.4814 33.4405 38.0777C33.0974 38.674 32.9247 39.3508 32.9225 40.1082C32.9202 40.8655 33.0889 41.5433 33.4285 42.1417C33.768 42.74 34.2413 43.2108 34.8483 43.5539C35.4553 43.8863 36.1428 44.0537 36.9108 44.056C38.0948 44.0595 39.0934 43.6198 39.9067 42.7368L41.2469 44.0208C40.7225 44.6272 40.0758 45.0893 39.3068 45.4071C38.5486 45.7248 37.7108 45.8824 36.7934 45.8796ZM50.0565 45.7588L47.0291 41.4939L44.0085 45.741L41.6405 45.734L45.8174 40.0343L41.8976 34.5347L44.2496 34.5416L47.1018 38.5341L49.9456 34.5585L52.2016 34.5651L48.2656 39.9615L52.4565 45.7659L50.0565 45.7588Z" fill="white"/>
</svg>