<svg width="56" height="66" viewBox="0 0 56 66" fill="none" xmlns="http://www.w3.org/2000/svg">
    <path d="M45.4091 47.9341L45.4531 33.0622C45.4573 32.5934 45.3708 32.1284 45.1987 31.6942C45.0265 31.2599 44.7721 30.8651 44.4501 30.5326C44.1282 30.2002 43.7451 29.9366 43.3232 29.7573C42.9013 29.578 42.4489 29.4864 41.9922 29.488L3.93534 29.3756C3.47868 29.3713 3.02573 29.4601 2.60275 29.637C2.17976 29.8138 1.79517 30.0751 1.47128 30.4056C1.14738 30.7362 0.89062 31.1295 0.715892 31.5627C0.541164 31.9959 0.451943 32.4604 0.453403 32.9293L0.409458 47.8011C0.405228 48.2699 0.491702 48.735 0.663867 49.1692C0.836032 49.6034 1.09046 49.9982 1.4124 50.3307C1.73434 50.6632 2.11738 50.9267 2.53931 51.1061C2.96124 51.2854 3.41366 51.3769 3.87033 51.3753L41.9272 51.4878C42.3838 51.4921 42.8368 51.4032 43.2598 51.2264C43.6828 51.0496 44.0674 50.7883 44.3913 50.4577C44.7152 50.1271 44.9719 49.7338 45.1466 49.3006C45.3214 48.8674 45.4106 48.4029 45.4091 47.9341Z" fill="#FF5824"/>
    <path d="M54.491 14.8859L41.4951 1.81301C41.3985 1.70836 41.281 1.62511 41.1502 1.5686C41.0194 1.5121 40.8782 1.48358 40.7358 1.4849L9.08385 1.39137C7.97361 1.3938 6.90917 1.83422 6.1218 2.61696C5.33442 3.3997 4.88771 4.46151 4.87872 5.57172L4.81729 26.3616C4.81644 26.6497 4.93006 26.9263 5.13316 27.1306C5.33626 27.3349 5.61221 27.4502 5.90028 27.451C6.18836 27.4519 6.46498 27.3383 6.66928 27.1352C6.87359 26.9321 6.98884 26.6561 6.9897 26.368L7.05113 5.57814C7.05271 5.04231 7.26709 4.52906 7.64709 4.1513C8.0271 3.77353 8.54161 3.56219 9.07743 3.56377L39.6431 3.65409L39.6078 15.6023C39.607 15.8904 39.7206 16.167 39.9237 16.3713C40.1268 16.5756 40.4027 16.6909 40.6908 16.6917L52.639 16.727L52.5102 60.3272C52.5086 60.863 52.2943 61.3762 51.9142 61.754C51.5342 62.1318 51.0197 62.3431 50.4839 62.3415L8.90411 62.2187C8.36829 62.2171 7.85504 62.0027 7.47727 61.6227C7.0995 61.2427 6.88817 60.7282 6.88975 60.1923L6.90625 54.6093C6.9071 54.3212 6.79347 54.0446 6.59037 53.8403C6.38727 53.636 6.11133 53.5207 5.82325 53.5199C5.53518 53.519 5.25856 53.6326 5.05425 53.8357C4.84995 54.0388 4.73469 54.3148 4.73384 54.6029L4.71735 60.1859C4.71977 61.2962 5.1602 62.3606 5.94294 63.148C6.72567 63.9354 7.78749 64.3821 8.89769 64.3911L50.4775 64.5139C51.5877 64.5115 52.6522 64.0711 53.4395 63.2883C54.2269 62.5056 54.6736 61.4438 54.6826 60.3336L54.8147 15.6472C54.8168 15.5048 54.7891 15.3635 54.7334 15.2323C54.6777 15.1012 54.5951 14.9832 54.491 14.8859ZM41.811 5.20292L51.1031 14.5501L41.7834 14.5225L41.811 5.20292Z" fill="#273350" stroke="#273350" stroke-width="0.7"/>
    <path d="M11.5582 35.1969C12.5289 35.1998 13.3711 35.3623 14.0848 35.6844C14.8092 36.0066 15.3625 36.4669 15.7447 37.0653C16.127 37.6638 16.3169 38.3737 16.3144 39.195C16.3121 40.0057 16.118 40.7144 15.7322 41.3213C15.3464 41.9175 14.7904 42.3745 14.0641 42.6924C13.3485 43.0103 12.5054 43.1678 11.5347 43.1649L9.00671 43.1574L8.99716 46.3894L6.91716 46.3833L6.95026 35.1833L11.5582 35.1969ZM11.4439 41.4046C12.3506 41.4073 13.0391 41.2173 13.5096 40.8347C13.9801 40.4521 14.2163 39.9035 14.2185 39.1888C14.2206 38.4742 13.9875 37.9241 13.5193 37.5388C13.0511 37.1534 12.3637 36.9593 11.457 36.9567L9.02505 36.9495L9.01191 41.3974L11.4439 41.4046ZM18.4033 35.2172L23.2993 35.2316C24.494 35.2352 25.5546 35.473 26.4812 35.945C27.4079 36.4065 28.1259 37.0646 28.6354 37.9194C29.1449 38.7636 29.398 39.7403 29.3947 40.8497C29.3915 41.959 29.1326 42.9396 28.618 43.7914C28.1036 44.6325 27.3816 45.2864 26.4522 45.753C25.5229 46.2089 24.4609 46.4351 23.2662 46.4316L18.3702 46.4171L18.4033 35.2172ZM23.1754 44.6713C23.9967 44.6737 24.7172 44.5212 25.3368 44.2137C25.9671 43.8956 26.4484 43.449 26.7807 42.874C27.1238 42.2883 27.2965 41.6115 27.2987 40.8435C27.301 40.0755 27.1323 39.403 26.7927 38.826C26.4638 38.2383 25.9851 37.7889 25.3567 37.4777C24.739 37.1559 24.0194 36.9938 23.1981 36.9913L20.4781 36.9833L20.4554 44.6633L23.1754 44.6713ZM33.6969 37.0064L33.6868 40.4144L39.0948 40.4303L39.0896 42.1903L33.6816 42.1743L33.6689 46.4623L31.5889 46.4562L31.622 35.2562L39.798 35.2804L39.7928 37.0244L33.6969 37.0064Z" fill="white"/>
</svg>