<?xml version="1.0" encoding="UTF-8"?>
<svg xmlns="http://www.w3.org/2000/svg" width="600" height="800" viewBox="0 0 600 800" fill="none">
  <rect width="600" height="800" fill="#F9FAFE"></rect>
  <path d="M411.037 0L600 189.2V0H411.037Z" fill="#EDF1F9"></path>
  <path d="M329.012 0L600 271.327V189.2L411.037 0H329.012Z" fill="#E2E9F5"></path>
  <path d="M275.272 0L600 325.134V271.327L329.013 0H275.272Z" fill="#EFF3FC"></path>
  <path d="M116.88 0L600 483.725V325.135L275.272 0H116.88Z" fill="#E7EEF9"></path>
  <path d="M0 67.0516L600 667.802V483.725L116.88 0H0V67.0516Z" fill="#EEF3FA"></path>
  <path d="M600 667.802V800H278.07L0 521.582V67.0513L600 667.802Z" fill="#EAEFF9"></path>
  <path d="M278.07 800L0 521.582V685.836L114.022 800H278.07Z" fill="#F9FAFE"></path>
  <path d="M0 685.836L114.022 800H0V685.836Z" fill="#F0F3FA"></path>
  <path d="M362.69 511.767C396.503 474.823 419 411.256 419 348.551C419 251.851 365.498 204 299.5 204C233.502 204 180 251.851 180 348.551C180 411.27 202.507 474.852 236.334 511.793C235.68 526.287 231.549 573.562 205.457 592.5C194.067 600.767 174.308 602.959 152.528 605.375C115.028 609.536 71.5366 614.361 54.4566 652C31.18 703.295 33.5442 779.859 34.6389 800H564.386C565.48 779.859 567.844 703.295 544.568 652C527.488 614.361 483.997 609.536 446.497 605.375C424.717 602.959 404.957 600.767 393.568 592.5C367.46 573.551 363.34 526.232 362.69 511.767Z" fill="#D6DFEF"></path>
  <path d="M205.912 616.2V661H199.64V621.768H173.656V661H167.32V616.2H205.912Z" fill="#4F5AA8"></path>
  <path d="M233.386 661.384C230.016 661.384 226.986 660.637 224.298 659.144C221.61 657.651 219.498 655.603 217.962 653C216.469 650.355 215.722 647.368 215.722 644.04C215.722 640.712 216.469 637.747 217.962 635.144C219.498 632.499 221.61 630.451 224.298 629C226.986 627.507 230.016 626.76 233.386 626.76C236.757 626.76 239.765 627.507 242.41 629C245.098 630.451 247.189 632.499 248.682 635.144C250.218 637.747 250.986 640.712 250.986 644.04C250.986 647.368 250.218 650.355 248.682 653C247.189 655.603 245.098 657.651 242.41 659.144C239.765 660.637 236.757 661.384 233.386 661.384ZM233.386 656.008C235.562 656.008 237.504 655.517 239.21 654.536C240.96 653.512 242.325 652.104 243.306 650.312C244.288 648.477 244.778 646.387 244.778 644.04C244.778 641.693 244.288 639.624 243.306 637.832C242.325 635.997 240.96 634.589 239.21 633.608C237.504 632.627 235.562 632.136 233.386 632.136C231.21 632.136 229.248 632.627 227.498 633.608C225.792 634.589 224.426 635.997 223.402 637.832C222.421 639.624 221.93 641.693 221.93 644.04C221.93 646.387 222.421 648.477 223.402 650.312C224.426 652.104 225.792 653.512 227.498 654.536C229.248 655.517 231.21 656.008 233.386 656.008Z" fill="#4F5AA8"></path>
  <path d="M277.842 626.76C281.128 626.76 284.072 627.485 286.674 628.936C289.277 630.387 291.304 632.413 292.754 635.016C294.248 637.619 294.994 640.627 294.994 644.04C294.994 647.453 294.248 650.483 292.754 653.128C291.304 655.731 289.277 657.757 286.674 659.208C284.072 660.659 281.128 661.384 277.842 661.384C275.41 661.384 273.17 660.915 271.122 659.976C269.117 659.037 267.41 657.672 266.002 655.88V673.416H259.858V627.08H265.746V632.456C267.112 630.579 268.84 629.171 270.93 628.232C273.021 627.251 275.325 626.76 277.842 626.76ZM277.33 656.008C279.506 656.008 281.448 655.517 283.154 654.536C284.904 653.512 286.269 652.104 287.25 650.312C288.274 648.477 288.786 646.387 288.786 644.04C288.786 641.693 288.274 639.624 287.25 637.832C286.269 635.997 284.904 634.589 283.154 633.608C281.448 632.627 279.506 632.136 277.33 632.136C275.197 632.136 273.256 632.648 271.506 633.672C269.8 634.653 268.434 636.04 267.41 637.832C266.429 639.624 265.938 641.693 265.938 644.04C265.938 646.387 266.429 648.477 267.41 650.312C268.392 652.104 269.757 653.512 271.506 654.536C273.256 655.517 275.197 656.008 277.33 656.008Z" fill="#4F5AA8"></path>
  <path d="M327.951 632.456H315.535V661H309.391V632.456H296.975V627.08H327.951V632.456Z" fill="#4F5AA8"></path>
  <path d="M352.217 626.76C355.503 626.76 358.447 627.485 361.049 628.936C363.652 630.387 365.679 632.413 367.129 635.016C368.623 637.619 369.369 640.627 369.369 644.04C369.369 647.453 368.623 650.483 367.129 653.128C365.679 655.731 363.652 657.757 361.049 659.208C358.447 660.659 355.503 661.384 352.217 661.384C349.785 661.384 347.545 660.915 345.497 659.976C343.492 659.037 341.785 657.672 340.377 655.88V673.416H334.233V627.08H340.121V632.456C341.487 630.579 343.215 629.171 345.305 628.232C347.396 627.251 349.7 626.76 352.217 626.76ZM351.705 656.008C353.881 656.008 355.823 655.517 357.529 654.536C359.279 653.512 360.644 652.104 361.625 650.312C362.649 648.477 363.161 646.387 363.161 644.04C363.161 641.693 362.649 639.624 361.625 637.832C360.644 635.997 359.279 634.589 357.529 633.608C355.823 632.627 353.881 632.136 351.705 632.136C349.572 632.136 347.631 632.648 345.881 633.672C344.175 634.653 342.809 636.04 341.785 637.832C340.804 639.624 340.313 641.693 340.313 644.04C340.313 646.387 340.804 648.477 341.785 650.312C342.767 652.104 344.132 653.512 345.881 654.536C347.631 655.517 349.572 656.008 351.705 656.008Z" fill="#4F5AA8"></path>
  <path d="M408.952 644.232C408.952 644.701 408.909 645.32 408.824 646.088H381.304C381.688 649.075 382.989 651.485 385.208 653.32C387.469 655.112 390.264 656.008 393.592 656.008C397.645 656.008 400.909 654.643 403.384 651.912L406.776 655.88C405.24 657.672 403.32 659.037 401.016 659.976C398.754 660.915 396.216 661.384 393.4 661.384C389.816 661.384 386.637 660.659 383.864 659.208C381.09 657.715 378.936 655.645 377.4 653C375.906 650.355 375.16 647.368 375.16 644.04C375.16 640.755 375.885 637.789 377.336 635.144C378.829 632.499 380.856 630.451 383.416 629C386.018 627.507 388.941 626.76 392.184 626.76C395.426 626.76 398.306 627.507 400.824 629C403.384 630.451 405.368 632.499 406.776 635.144C408.226 637.789 408.952 640.819 408.952 644.232ZM392.184 631.944C389.24 631.944 386.765 632.84 384.76 634.632C382.797 636.424 381.645 638.771 381.304 641.672H403.064C402.722 638.813 401.549 636.488 399.544 634.696C397.581 632.861 395.128 631.944 392.184 631.944Z" fill="#4F5AA8"></path>
  <path d="M442.326 632.456H429.91V661H423.766V632.456H411.35V627.08H442.326V632.456Z" fill="#4F5AA8"></path>
  <path d="M166.247 710.4C169.559 710.4 172.511 711.024 175.103 712.272C177.743 713.52 179.807 715.32 181.295 717.672C182.783 719.976 183.527 722.64 183.527 725.664C183.527 728.832 182.735 731.616 181.151 734.016C179.615 736.416 177.479 738.288 174.743 739.632C172.055 740.928 169.031 741.576 165.671 741.576C158.903 741.576 153.671 739.392 149.975 735.024C146.327 730.656 144.503 724.464 144.503 716.448C144.503 710.832 145.487 706.056 147.455 702.12C149.471 698.136 152.255 695.136 155.807 693.12C159.407 691.056 163.583 690.024 168.335 690.024C170.783 690.024 173.087 690.288 175.247 690.816C177.407 691.296 179.279 692.016 180.863 692.976L178.127 698.592C175.727 697.008 172.511 696.216 168.479 696.216C163.247 696.216 159.143 697.848 156.167 701.112C153.191 704.328 151.703 709.032 151.703 715.224C151.703 715.992 151.727 716.592 151.775 717.024C153.215 714.864 155.183 713.232 157.679 712.128C160.223 710.976 163.079 710.4 166.247 710.4ZM165.383 735.744C168.695 735.744 171.383 734.856 173.447 733.08C175.511 731.304 176.543 728.928 176.543 725.952C176.543 722.976 175.487 720.624 173.375 718.896C171.311 717.12 168.527 716.232 165.023 716.232C162.767 716.232 160.751 716.664 158.975 717.528C157.247 718.392 155.879 719.568 154.871 721.056C153.911 722.544 153.431 724.2 153.431 726.024C153.431 727.8 153.887 729.432 154.799 730.92C155.759 732.36 157.127 733.536 158.903 734.448C160.727 735.312 162.887 735.744 165.383 735.744Z" fill="#4F5AA8"></path>
  <path d="M209.532 741.576C205.548 741.576 201.996 740.568 198.876 738.552C195.804 736.488 193.38 733.512 191.604 729.624C189.828 725.736 188.94 721.128 188.94 715.8C188.94 710.472 189.828 705.864 191.604 701.976C193.38 698.088 195.804 695.136 198.876 693.12C201.996 691.056 205.548 690.024 209.532 690.024C213.468 690.024 216.972 691.056 220.044 693.12C223.164 695.136 225.612 698.088 227.388 701.976C229.164 705.864 230.052 710.472 230.052 715.8C230.052 721.128 229.164 725.736 227.388 729.624C225.612 733.512 223.164 736.488 220.044 738.552C216.972 740.568 213.468 741.576 209.532 741.576ZM209.532 735.168C213.564 735.168 216.78 733.512 219.18 730.2C221.628 726.888 222.852 722.088 222.852 715.8C222.852 709.512 221.628 704.712 219.18 701.4C216.78 698.088 213.564 696.432 209.532 696.432C205.452 696.432 202.188 698.088 199.74 701.4C197.34 704.712 196.14 709.512 196.14 715.8C196.14 722.088 197.34 726.888 199.74 730.2C202.188 733.512 205.452 735.168 209.532 735.168Z" fill="#4F5AA8"></path>
  <path d="M257.556 741.576C253.572 741.576 250.02 740.568 246.9 738.552C243.828 736.488 241.404 733.512 239.628 729.624C237.852 725.736 236.964 721.128 236.964 715.8C236.964 710.472 237.852 705.864 239.628 701.976C241.404 698.088 243.828 695.136 246.9 693.12C250.02 691.056 253.572 690.024 257.556 690.024C261.492 690.024 264.996 691.056 268.068 693.12C271.188 695.136 273.636 698.088 275.412 701.976C277.188 705.864 278.076 710.472 278.076 715.8C278.076 721.128 277.188 725.736 275.412 729.624C273.636 733.512 271.188 736.488 268.068 738.552C264.996 740.568 261.492 741.576 257.556 741.576ZM257.556 735.168C261.588 735.168 264.804 733.512 267.204 730.2C269.652 726.888 270.876 722.088 270.876 715.8C270.876 709.512 269.652 704.712 267.204 701.4C264.804 698.088 261.588 696.432 257.556 696.432C253.476 696.432 250.212 698.088 247.764 701.4C245.364 704.712 244.164 709.512 244.164 715.8C244.164 722.088 245.364 726.888 247.764 730.2C250.212 733.512 253.476 735.168 257.556 735.168Z" fill="#4F5AA8"></path>
  <path d="M311.356 741L300.34 726.384L289.18 741H281.476L296.524 721.488L282.196 702.84H289.9L300.412 716.592L310.852 702.84H318.412L304.012 721.488L319.204 741H311.356Z" fill="#4F5AA8"></path>
  <path d="M353.842 714.576C356.722 715.68 358.93 717.264 360.466 719.328C362.002 721.392 362.77 723.864 362.77 726.744C362.77 729.768 361.954 732.408 360.322 734.664C358.69 736.872 356.362 738.576 353.338 739.776C350.314 740.976 346.762 741.576 342.682 741.576C338.65 741.576 335.122 740.976 332.098 739.776C329.122 738.576 326.818 736.872 325.186 734.664C323.554 732.408 322.738 729.768 322.738 726.744C322.738 723.864 323.482 721.392 324.97 719.328C326.506 717.264 328.714 715.68 331.594 714.576C329.29 713.472 327.538 712.008 326.338 710.184C325.138 708.36 324.538 706.2 324.538 703.704C324.538 700.92 325.282 698.496 326.77 696.432C328.306 694.368 330.442 692.784 333.178 691.68C335.914 690.576 339.082 690.024 342.682 690.024C346.33 690.024 349.522 690.576 352.258 691.68C355.042 692.784 357.178 694.368 358.666 696.432C360.202 698.496 360.97 700.92 360.97 703.704C360.97 706.152 360.346 708.312 359.098 710.184C357.898 712.008 356.146 713.472 353.842 714.576ZM342.682 695.856C339.274 695.856 336.586 696.6 334.618 698.088C332.65 699.528 331.666 701.496 331.666 703.992C331.666 706.488 332.626 708.456 334.546 709.896C336.514 711.336 339.226 712.056 342.682 712.056C346.186 712.056 348.922 711.336 350.89 709.896C352.906 708.456 353.914 706.488 353.914 703.992C353.914 701.496 352.882 699.528 350.818 698.088C348.802 696.6 346.09 695.856 342.682 695.856ZM342.682 735.744C346.666 735.744 349.81 734.928 352.114 733.296C354.418 731.616 355.57 729.36 355.57 726.528C355.57 723.744 354.418 721.56 352.114 719.976C349.81 718.344 346.666 717.528 342.682 717.528C338.698 717.528 335.578 718.344 333.322 719.976C331.066 721.56 329.938 723.744 329.938 726.528C329.938 729.36 331.066 731.616 333.322 733.296C335.578 734.928 338.698 735.744 342.682 735.744Z" fill="#4F5AA8"></path>
  <path d="M389.954 741.576C385.97 741.576 382.418 740.568 379.298 738.552C376.226 736.488 373.802 733.512 372.026 729.624C370.25 725.736 369.362 721.128 369.362 715.8C369.362 710.472 370.25 705.864 372.026 701.976C373.802 698.088 376.226 695.136 379.298 693.12C382.418 691.056 385.97 690.024 389.954 690.024C393.89 690.024 397.394 691.056 400.466 693.12C403.586 695.136 406.034 698.088 407.81 701.976C409.586 705.864 410.474 710.472 410.474 715.8C410.474 721.128 409.586 725.736 407.81 729.624C406.034 733.512 403.586 736.488 400.466 738.552C397.394 740.568 393.89 741.576 389.954 741.576ZM389.954 735.168C393.986 735.168 397.202 733.512 399.602 730.2C402.05 726.888 403.274 722.088 403.274 715.8C403.274 709.512 402.05 704.712 399.602 701.4C397.202 698.088 393.986 696.432 389.954 696.432C385.874 696.432 382.61 698.088 380.162 701.4C377.762 704.712 376.562 709.512 376.562 715.8C376.562 722.088 377.762 726.888 380.162 730.2C382.61 733.512 385.874 735.168 389.954 735.168Z" fill="#4F5AA8"></path>
  <path d="M437.978 741.576C433.994 741.576 430.442 740.568 427.322 738.552C424.25 736.488 421.826 733.512 420.05 729.624C418.274 725.736 417.386 721.128 417.386 715.8C417.386 710.472 418.274 705.864 420.05 701.976C421.826 698.088 424.25 695.136 427.322 693.12C430.442 691.056 433.994 690.024 437.978 690.024C441.914 690.024 445.418 691.056 448.49 693.12C451.61 695.136 454.058 698.088 455.834 701.976C457.61 705.864 458.498 710.472 458.498 715.8C458.498 721.128 457.61 725.736 455.834 729.624C454.058 733.512 451.61 736.488 448.49 738.552C445.418 740.568 441.914 741.576 437.978 741.576ZM437.978 735.168C442.01 735.168 445.226 733.512 447.626 730.2C450.074 726.888 451.298 722.088 451.298 715.8C451.298 709.512 450.074 704.712 447.626 701.4C445.226 698.088 442.01 696.432 437.978 696.432C433.898 696.432 430.634 698.088 428.186 701.4C425.786 704.712 424.586 709.512 424.586 715.8C424.586 722.088 425.786 726.888 428.186 730.2C430.634 733.512 433.898 735.168 437.978 735.168Z" fill="#4F5AA8"></path>
</svg>
