<?xml version="1.0" encoding="UTF-8"?>
<svg xmlns="http://www.w3.org/2000/svg" width="800" height="600" viewBox="0 0 800 600" fill="none">
  <rect width="800" height="600" fill="#88ABFF"></rect>
  <path d="M223.996 178.576H206.716L206.764 208H202.012V174.4H224.044L223.996 178.576Z" fill="white"></path>
  <path d="M232.718 208.288C230.19 208.288 227.918 207.728 225.902 206.608C223.886 205.488 222.302 203.952 221.15 202C220.03 200.016 219.47 197.776 219.47 195.28C219.47 192.784 220.03 190.56 221.15 188.608C222.302 186.624 223.886 185.088 225.902 184C227.918 182.88 230.19 182.32 232.718 182.32C235.246 182.32 237.502 182.88 239.486 184C241.502 185.088 243.07 186.624 244.19 188.608C245.342 190.56 245.918 192.784 245.918 195.28C245.918 197.776 245.342 200.016 244.19 202C243.07 203.952 241.502 205.488 239.486 206.608C237.502 207.728 235.246 208.288 232.718 208.288ZM232.718 204.256C234.35 204.256 235.806 203.888 237.086 203.152C238.398 202.384 239.422 201.328 240.158 199.984C240.894 198.608 241.262 197.04 241.262 195.28C241.262 193.52 240.894 191.968 240.158 190.624C239.422 189.248 238.398 188.192 237.086 187.456C235.806 186.72 234.35 186.352 232.718 186.352C231.086 186.352 229.614 186.72 228.302 187.456C227.022 188.192 225.998 189.248 225.23 190.624C224.494 191.968 224.126 193.52 224.126 195.28C224.126 197.04 224.494 198.608 225.23 199.984C225.998 201.328 227.022 202.384 228.302 203.152C229.614 203.888 231.086 204.256 232.718 204.256Z" fill="white"></path>
  <path d="M266.06 182.32C268.524 182.32 270.732 182.864 272.684 183.952C274.636 185.04 276.156 186.56 277.244 188.512C278.364 190.464 278.924 192.72 278.924 195.28C278.924 197.84 278.364 200.112 277.244 202.096C276.156 204.048 274.636 205.568 272.684 206.656C270.732 207.744 268.524 208.288 266.06 208.288C264.236 208.288 262.556 207.936 261.02 207.232C259.516 206.528 258.236 205.504 257.18 204.16V217.312H252.572V182.56H256.988V186.592C258.012 185.184 259.308 184.128 260.876 183.424C262.444 182.688 264.172 182.32 266.06 182.32ZM265.676 204.256C267.308 204.256 268.764 203.888 270.044 203.152C271.356 202.384 272.38 201.328 273.116 199.984C273.884 198.608 274.268 197.04 274.268 195.28C274.268 193.52 273.884 191.968 273.116 190.624C272.38 189.248 271.356 188.192 270.044 187.456C268.764 186.72 267.308 186.352 265.676 186.352C264.076 186.352 262.62 186.736 261.308 187.504C260.028 188.24 259.004 189.28 258.236 190.624C257.5 191.968 257.132 193.52 257.132 195.28C257.132 197.04 257.5 198.608 258.236 199.984C258.972 201.328 259.996 202.384 261.308 203.152C262.62 203.888 264.076 204.256 265.676 204.256Z" fill="white"></path>
  <path d="M285.619 182.56H290.227V201.088L305.827 182.56H310.003V208H305.395V189.472L289.843 208H285.619V182.56Z" fill="white"></path>
  <path d="M332.301 194.752C333.997 195.2 335.309 195.92 336.237 196.912C337.165 197.904 337.629 199.136 337.629 200.608C337.629 202.112 337.117 203.456 336.093 204.64C335.069 205.792 333.645 206.704 331.821 207.376C330.029 208.016 328.013 208.336 325.773 208.336C323.885 208.336 322.029 208.096 320.205 207.616C318.413 207.104 316.813 206.384 315.405 205.456L316.797 201.952C318.013 202.72 319.405 203.328 320.973 203.776C322.541 204.192 324.125 204.4 325.725 204.4C327.901 204.4 329.629 204.032 330.909 203.296C332.221 202.528 332.877 201.504 332.877 200.224C332.877 199.04 332.349 198.128 331.293 197.488C330.269 196.848 328.813 196.528 326.925 196.528H322.269V193.216H326.589C328.317 193.216 329.677 192.912 330.669 192.304C331.661 191.696 332.157 190.864 332.157 189.808C332.157 188.656 331.565 187.76 330.381 187.12C329.229 186.48 327.661 186.16 325.677 186.16C323.149 186.16 320.477 186.816 317.661 188.128L316.413 184.576C319.517 183.008 322.765 182.224 326.157 182.224C328.205 182.224 330.045 182.512 331.677 183.088C333.309 183.664 334.589 184.48 335.517 185.536C336.445 186.592 336.909 187.792 336.909 189.136C336.909 190.384 336.493 191.504 335.661 192.496C334.829 193.488 333.709 194.24 332.301 194.752Z" fill="white"></path>
  <path d="M355.53 208.288C353.002 208.288 350.73 207.728 348.714 206.608C346.698 205.488 345.114 203.952 343.962 202C342.842 200.016 342.282 197.776 342.282 195.28C342.282 192.784 342.842 190.56 343.962 188.608C345.114 186.624 346.698 185.088 348.714 184C350.73 182.88 353.002 182.32 355.53 182.32C358.058 182.32 360.314 182.88 362.298 184C364.314 185.088 365.882 186.624 367.002 188.608C368.154 190.56 368.73 192.784 368.73 195.28C368.73 197.776 368.154 200.016 367.002 202C365.882 203.952 364.314 205.488 362.298 206.608C360.314 207.728 358.058 208.288 355.53 208.288ZM355.53 204.256C357.162 204.256 358.618 203.888 359.898 203.152C361.21 202.384 362.234 201.328 362.97 199.984C363.706 198.608 364.074 197.04 364.074 195.28C364.074 193.52 363.706 191.968 362.97 190.624C362.234 189.248 361.21 188.192 359.898 187.456C358.618 186.72 357.162 186.352 355.53 186.352C353.898 186.352 352.426 186.72 351.114 187.456C349.834 188.192 348.81 189.248 348.042 190.624C347.306 191.968 346.938 193.52 346.938 195.28C346.938 197.04 347.306 198.608 348.042 199.984C348.81 201.328 349.834 202.384 351.114 203.152C352.426 203.888 353.898 204.256 355.53 204.256Z" fill="white"></path>
  <path d="M375.384 182.56H379.992V193.36H394.488V182.56H399.096V208H394.488V197.344H379.992V208H375.384V182.56Z" fill="white"></path>
  <path d="M427.016 186.592H417.704V208H413.096V186.592H403.784V182.56H427.016V186.592Z" fill="white"></path>
  <path d="M440.8 182.32C444.32 182.32 447.008 183.184 448.864 184.912C450.752 186.64 451.696 189.216 451.696 192.64V208H447.328V204.64C446.56 205.824 445.456 206.736 444.016 207.376C442.608 207.984 440.928 208.288 438.976 208.288C436.128 208.288 433.84 207.6 432.112 206.224C430.416 204.848 429.568 203.04 429.568 200.8C429.568 198.56 430.384 196.768 432.016 195.424C433.648 194.048 436.24 193.36 439.792 193.36H447.088V192.448C447.088 190.464 446.512 188.944 445.36 187.888C444.208 186.832 442.512 186.304 440.272 186.304C438.768 186.304 437.296 186.56 435.856 187.072C434.416 187.552 433.2 188.208 432.208 189.04L430.288 185.584C431.6 184.528 433.168 183.728 434.992 183.184C436.816 182.608 438.752 182.32 440.8 182.32ZM439.744 204.736C441.504 204.736 443.024 204.352 444.304 203.584C445.584 202.784 446.512 201.664 447.088 200.224V196.672H439.984C436.08 196.672 434.128 197.984 434.128 200.608C434.128 201.888 434.624 202.896 435.616 203.632C436.608 204.368 437.984 204.736 439.744 204.736Z" fill="white"></path>
  <path d="M481.834 182.56V208H477.226V186.592H466.282L465.994 192.256C465.834 195.68 465.53 198.544 465.082 200.848C464.634 203.12 463.898 204.944 462.874 206.32C461.85 207.696 460.426 208.384 458.602 208.384C457.77 208.384 456.826 208.24 455.77 207.952L456.058 204.064C456.474 204.16 456.858 204.208 457.21 204.208C458.49 204.208 459.45 203.648 460.09 202.528C460.73 201.408 461.146 200.08 461.338 198.544C461.53 197.008 461.706 194.816 461.866 191.968L462.298 182.56H481.834Z" fill="white"></path>
  <path d="M502.504 191.2C505.736 191.232 508.2 191.968 509.896 193.408C511.592 194.848 512.44 196.88 512.44 199.504C512.44 202.256 511.512 204.384 509.656 205.888C507.832 207.36 505.208 208.08 501.784 208.048L490.744 208V182.56H495.352V191.152L502.504 191.2ZM501.4 204.544C503.48 204.576 505.048 204.16 506.104 203.296C507.192 202.432 507.736 201.152 507.736 199.456C507.736 197.792 507.208 196.576 506.152 195.808C505.128 195.04 503.544 194.64 501.4 194.608L495.352 194.512V204.496L501.4 204.544Z" fill="white"></path>
  <path d="M518.353 182.56H522.961V193.36H537.457V182.56H542.065V208H537.457V197.344H522.961V208H518.353V182.56Z" fill="white"></path>
  <path d="M560.097 182.32C563.617 182.32 566.305 183.184 568.161 184.912C570.049 186.64 570.993 189.216 570.993 192.64V208H566.625V204.64C565.857 205.824 564.753 206.736 563.313 207.376C561.905 207.984 560.225 208.288 558.273 208.288C555.425 208.288 553.137 207.6 551.409 206.224C549.713 204.848 548.865 203.04 548.865 200.8C548.865 198.56 549.681 196.768 551.313 195.424C552.945 194.048 555.537 193.36 559.089 193.36H566.385V192.448C566.385 190.464 565.809 188.944 564.657 187.888C563.505 186.832 561.809 186.304 559.569 186.304C558.065 186.304 556.593 186.56 555.153 187.072C553.713 187.552 552.497 188.208 551.505 189.04L549.585 185.584C550.897 184.528 552.465 183.728 554.289 183.184C556.113 182.608 558.049 182.32 560.097 182.32ZM559.041 204.736C560.801 204.736 562.321 204.352 563.601 203.584C564.881 202.784 565.809 201.664 566.385 200.224V196.672H559.281C555.377 196.672 553.425 197.984 553.425 200.608C553.425 201.888 553.921 202.896 554.913 203.632C555.905 204.368 557.281 204.736 559.041 204.736Z" fill="white"></path>
  <path d="M599.691 182.56V208H595.563V199.936H587.643L582.075 208H577.131L583.323 199.312C581.403 198.736 579.931 197.792 578.907 196.48C577.883 195.136 577.371 193.472 577.371 191.488C577.371 188.576 578.363 186.368 580.347 184.864C582.331 183.328 585.067 182.56 588.555 182.56H599.691ZM582.075 191.632C582.075 193.328 582.603 194.592 583.659 195.424C584.747 196.224 586.363 196.624 588.507 196.624H595.563V186.592H588.699C584.283 186.592 582.075 188.272 582.075 191.632Z" fill="white"></path>
  <path d="M283.278 267.232C283.278 271.168 281.966 274.272 279.342 276.544C276.718 278.816 273.022 280.08 268.254 280.336V289.312H263.742V280.336C258.974 280.08 255.278 278.832 252.654 276.592C250.062 274.32 248.766 271.2 248.766 267.232C248.766 263.296 250.062 260.224 252.654 258.016C255.246 255.808 258.942 254.576 263.742 254.32V244.384H268.254V254.32C273.022 254.576 276.718 255.824 279.342 258.064C281.966 260.272 283.278 263.328 283.278 267.232ZM253.326 267.232C253.326 269.952 254.19 272.08 255.918 273.616C257.678 275.152 260.286 276.032 263.742 276.256V258.4C260.254 258.624 257.646 259.488 255.918 260.992C254.19 262.496 253.326 264.576 253.326 267.232ZM268.254 276.304C275.23 275.76 278.718 272.736 278.718 267.232C278.718 264.544 277.838 262.464 276.078 260.992C274.318 259.488 271.71 258.624 268.254 258.4V276.304Z" fill="white"></path>
  <path d="M300.687 280.288C298.159 280.288 295.887 279.728 293.871 278.608C291.855 277.488 290.271 275.952 289.119 274C287.999 272.016 287.439 269.776 287.439 267.28C287.439 264.784 287.999 262.56 289.119 260.608C290.271 258.624 291.855 257.088 293.871 256C295.887 254.88 298.159 254.32 300.687 254.32C303.215 254.32 305.471 254.88 307.455 256C309.471 257.088 311.039 258.624 312.159 260.608C313.311 262.56 313.887 264.784 313.887 267.28C313.887 269.776 313.311 272.016 312.159 274C311.039 275.952 309.471 277.488 307.455 278.608C305.471 279.728 303.215 280.288 300.687 280.288ZM300.687 276.256C302.319 276.256 303.775 275.888 305.055 275.152C306.367 274.384 307.391 273.328 308.127 271.984C308.863 270.608 309.231 269.04 309.231 267.28C309.231 265.52 308.863 263.968 308.127 262.624C307.391 261.248 306.367 260.192 305.055 259.456C303.775 258.72 302.319 258.352 300.687 258.352C299.055 258.352 297.583 258.72 296.271 259.456C294.991 260.192 293.967 261.248 293.199 262.624C292.463 263.968 292.095 265.52 292.095 267.28C292.095 269.04 292.463 270.608 293.199 271.984C293.967 273.328 294.991 274.384 296.271 275.152C297.583 275.888 299.055 276.256 300.687 276.256Z" fill="white"></path>
  <path d="M338.563 258.592H329.251V280H324.643V258.592H315.331V254.56H338.563V258.592Z" fill="white"></path>
  <path d="M353.046 280.288C350.518 280.288 348.246 279.728 346.23 278.608C344.214 277.488 342.63 275.952 341.478 274C340.358 272.016 339.798 269.776 339.798 267.28C339.798 264.784 340.358 262.56 341.478 260.608C342.63 258.624 344.214 257.088 346.23 256C348.246 254.88 350.518 254.32 353.046 254.32C355.574 254.32 357.83 254.88 359.814 256C361.83 257.088 363.398 258.624 364.518 260.608C365.67 262.56 366.246 264.784 366.246 267.28C366.246 269.776 365.67 272.016 364.518 274C363.398 275.952 361.83 277.488 359.814 278.608C357.83 279.728 355.574 280.288 353.046 280.288ZM353.046 276.256C354.678 276.256 356.134 275.888 357.414 275.152C358.726 274.384 359.75 273.328 360.486 271.984C361.222 270.608 361.59 269.04 361.59 267.28C361.59 265.52 361.222 263.968 360.486 262.624C359.75 261.248 358.726 260.192 357.414 259.456C356.134 258.72 354.678 258.352 353.046 258.352C351.414 258.352 349.942 258.72 348.63 259.456C347.35 260.192 346.326 261.248 345.558 262.624C344.822 263.968 344.454 265.52 344.454 267.28C344.454 269.04 344.822 270.608 345.558 271.984C346.326 273.328 347.35 274.384 348.63 275.152C349.942 275.888 351.414 276.256 353.046 276.256Z" fill="white"></path>
  <path d="M391.62 258.592H377.508V280H372.9V254.56H391.62V258.592Z" fill="white"></path>
  <path d="M409.825 254.32C412.289 254.32 414.497 254.864 416.449 255.952C418.401 257.04 419.921 258.56 421.009 260.512C422.129 262.464 422.689 264.72 422.689 267.28C422.689 269.84 422.129 272.112 421.009 274.096C419.921 276.048 418.401 277.568 416.449 278.656C414.497 279.744 412.289 280.288 409.825 280.288C408.001 280.288 406.321 279.936 404.785 279.232C403.281 278.528 402.001 277.504 400.945 276.16V289.312H396.337V254.56H400.753V258.592C401.777 257.184 403.073 256.128 404.641 255.424C406.209 254.688 407.937 254.32 409.825 254.32ZM409.441 276.256C411.073 276.256 412.529 275.888 413.809 275.152C415.121 274.384 416.145 273.328 416.881 271.984C417.649 270.608 418.033 269.04 418.033 267.28C418.033 265.52 417.649 263.968 416.881 262.624C416.145 261.248 415.121 260.192 413.809 259.456C412.529 258.72 411.073 258.352 409.441 258.352C407.841 258.352 406.385 258.736 405.073 259.504C403.793 260.24 402.769 261.28 402.001 262.624C401.265 263.968 400.897 265.52 400.897 267.28C400.897 269.04 401.265 270.608 402.001 271.984C402.737 273.328 403.761 274.384 405.073 275.152C406.385 275.888 407.841 276.256 409.441 276.256Z" fill="white"></path>
  <path d="M438.222 254.32C441.742 254.32 444.43 255.184 446.286 256.912C448.174 258.64 449.118 261.216 449.118 264.64V280H444.75V276.64C443.982 277.824 442.878 278.736 441.438 279.376C440.03 279.984 438.35 280.288 436.398 280.288C433.55 280.288 431.262 279.6 429.534 278.224C427.838 276.848 426.99 275.04 426.99 272.8C426.99 270.56 427.806 268.768 429.438 267.424C431.07 266.048 433.662 265.36 437.214 265.36H444.51V264.448C444.51 262.464 443.934 260.944 442.782 259.888C441.63 258.832 439.934 258.304 437.694 258.304C436.19 258.304 434.718 258.56 433.278 259.072C431.838 259.552 430.622 260.208 429.63 261.04L427.71 257.584C429.022 256.528 430.59 255.728 432.414 255.184C434.238 254.608 436.174 254.32 438.222 254.32ZM437.166 276.736C438.926 276.736 440.446 276.352 441.726 275.584C443.006 274.784 443.934 273.664 444.51 272.224V268.672H437.406C433.502 268.672 431.55 269.984 431.55 272.608C431.55 273.888 432.046 274.896 433.038 275.632C434.03 276.368 435.406 276.736 437.166 276.736Z" fill="white"></path>
  <path d="M489.528 267.232C489.528 271.168 488.216 274.272 485.592 276.544C482.968 278.816 479.272 280.08 474.504 280.336V289.312H469.992V280.336C465.224 280.08 461.528 278.832 458.904 276.592C456.312 274.32 455.016 271.2 455.016 267.232C455.016 263.296 456.312 260.224 458.904 258.016C461.496 255.808 465.192 254.576 469.992 254.32V244.384H474.504V254.32C479.272 254.576 482.968 255.824 485.592 258.064C488.216 260.272 489.528 263.328 489.528 267.232ZM459.576 267.232C459.576 269.952 460.44 272.08 462.168 273.616C463.928 275.152 466.536 276.032 469.992 276.256V258.4C466.504 258.624 463.896 259.488 462.168 260.992C460.44 262.496 459.576 264.576 459.576 267.232ZM474.504 276.304C481.48 275.76 484.968 272.736 484.968 267.232C484.968 264.544 484.088 262.464 482.328 260.992C480.568 259.488 477.96 258.624 474.504 258.4V276.304Z" fill="white"></path>
  <path d="M496.041 254.56H500.649V273.088L516.249 254.56H520.425V280H515.817V261.472L500.265 280H496.041V254.56Z" fill="white"></path>
  <path d="M549.769 254.56V280H545.641V271.936H537.721L532.153 280H527.209L533.401 271.312C531.481 270.736 530.009 269.792 528.985 268.48C527.961 267.136 527.449 265.472 527.449 263.488C527.449 260.576 528.441 258.368 530.425 256.864C532.409 255.328 535.145 254.56 538.633 254.56H549.769ZM532.153 263.632C532.153 265.328 532.681 266.592 533.737 267.424C534.825 268.224 536.441 268.624 538.585 268.624H545.641V258.592H538.777C534.361 258.592 532.153 260.272 532.153 263.632Z" fill="white"></path>
  <path d="M288.556 400.512C291.116 401.494 293.079 402.902 294.444 404.736C295.81 406.571 296.492 408.768 296.492 411.328C296.492 414.016 295.767 416.363 294.316 418.368C292.866 420.331 290.796 421.846 288.108 422.912C285.42 423.979 282.263 424.512 278.636 424.512C275.052 424.512 271.916 423.979 269.228 422.912C266.583 421.846 264.535 420.331 263.084 418.368C261.634 416.363 260.908 414.016 260.908 411.328C260.908 408.768 261.57 406.571 262.892 404.736C264.258 402.902 266.22 401.494 268.78 400.512C266.732 399.531 265.175 398.23 264.108 396.608C263.042 394.987 262.508 393.067 262.508 390.848C262.508 388.374 263.17 386.219 264.492 384.384C265.858 382.55 267.756 381.142 270.188 380.16C272.62 379.179 275.436 378.688 278.636 378.688C281.879 378.688 284.716 379.179 287.148 380.16C289.623 381.142 291.522 382.55 292.844 384.384C294.21 386.219 294.892 388.374 294.892 390.848C294.892 393.024 294.338 394.944 293.228 396.608C292.162 398.23 290.604 399.531 288.556 400.512ZM278.636 383.872C275.607 383.872 273.218 384.534 271.468 385.856C269.719 387.136 268.844 388.886 268.844 391.104C268.844 393.323 269.698 395.072 271.404 396.352C273.154 397.632 275.564 398.272 278.636 398.272C281.751 398.272 284.183 397.632 285.932 396.352C287.724 395.072 288.62 393.323 288.62 391.104C288.62 388.886 287.703 387.136 285.868 385.856C284.076 384.534 281.666 383.872 278.636 383.872ZM278.636 419.328C282.178 419.328 284.972 418.603 287.02 417.152C289.068 415.659 290.092 413.654 290.092 411.136C290.092 408.662 289.068 406.72 287.02 405.312C284.972 403.862 282.178 403.136 278.636 403.136C275.095 403.136 272.322 403.862 270.316 405.312C268.311 406.72 267.308 408.662 267.308 411.136C267.308 413.654 268.311 415.659 270.316 417.152C272.322 418.603 275.095 419.328 278.636 419.328Z" fill="white"></path>
  <path d="M320.656 424.512C317.114 424.512 313.957 423.616 311.184 421.824C308.453 419.99 306.298 417.344 304.72 413.888C303.141 410.432 302.352 406.336 302.352 401.6C302.352 396.864 303.141 392.768 304.72 389.312C306.298 385.856 308.453 383.232 311.184 381.44C313.957 379.606 317.114 378.688 320.656 378.688C324.154 378.688 327.269 379.606 330 381.44C332.773 383.232 334.949 385.856 336.528 389.312C338.106 392.768 338.896 396.864 338.896 401.6C338.896 406.336 338.106 410.432 336.528 413.888C334.949 417.344 332.773 419.99 330 421.824C327.269 423.616 324.154 424.512 320.656 424.512ZM320.656 418.816C324.24 418.816 327.098 417.344 329.232 414.4C331.408 411.456 332.496 407.19 332.496 401.6C332.496 396.011 331.408 391.744 329.232 388.8C327.098 385.856 324.24 384.384 320.656 384.384C317.029 384.384 314.128 385.856 311.952 388.8C309.818 391.744 308.752 396.011 308.752 401.6C308.752 407.19 309.818 411.456 311.952 414.4C314.128 417.344 317.029 418.816 320.656 418.816Z" fill="white"></path>
  <path d="M363.343 424.512C359.802 424.512 356.645 423.616 353.871 421.824C351.141 419.99 348.986 417.344 347.407 413.888C345.829 410.432 345.039 406.336 345.039 401.6C345.039 396.864 345.829 392.768 347.407 389.312C348.986 385.856 351.141 383.232 353.871 381.44C356.645 379.606 359.802 378.688 363.343 378.688C366.842 378.688 369.957 379.606 372.687 381.44C375.461 383.232 377.637 385.856 379.215 389.312C380.794 392.768 381.583 396.864 381.583 401.6C381.583 406.336 380.794 410.432 379.215 413.888C377.637 417.344 375.461 419.99 372.687 421.824C369.957 423.616 366.842 424.512 363.343 424.512ZM363.343 418.816C366.927 418.816 369.786 417.344 371.919 414.4C374.095 411.456 375.183 407.19 375.183 401.6C375.183 396.011 374.095 391.744 371.919 388.8C369.786 385.856 366.927 384.384 363.343 384.384C359.717 384.384 356.815 385.856 354.639 388.8C352.506 391.744 351.439 396.011 351.439 401.6C351.439 407.19 352.506 411.456 354.639 414.4C356.815 417.344 359.717 418.816 363.343 418.816Z" fill="white"></path>
  <path d="M411.166 424L401.374 411.008L391.454 424H384.606L397.982 406.656L385.246 390.08H392.094L401.438 402.304L410.718 390.08H417.438L404.638 406.656L418.142 424H411.166Z" fill="white"></path>
  <path d="M440.43 396.8C443.374 396.8 445.998 397.355 448.302 398.464C450.648 399.574 452.483 401.174 453.806 403.264C455.128 405.312 455.79 407.68 455.79 410.368C455.79 413.184 455.086 415.659 453.678 417.792C452.312 419.926 450.414 421.59 447.982 422.784C445.592 423.936 442.904 424.512 439.918 424.512C433.902 424.512 429.251 422.571 425.966 418.688C422.723 414.806 421.102 409.302 421.102 402.176C421.102 397.184 421.976 392.939 423.726 389.44C425.518 385.899 427.992 383.232 431.15 381.44C434.35 379.606 438.062 378.688 442.286 378.688C444.462 378.688 446.51 378.923 448.43 379.392C450.35 379.819 452.014 380.459 453.422 381.312L450.99 386.304C448.856 384.896 445.998 384.192 442.414 384.192C437.763 384.192 434.115 385.643 431.47 388.544C428.824 391.403 427.502 395.584 427.502 401.088C427.502 401.771 427.523 402.304 427.566 402.688C428.846 400.768 430.595 399.318 432.814 398.336C435.075 397.312 437.614 396.8 440.43 396.8ZM439.662 419.328C442.606 419.328 444.995 418.539 446.83 416.96C448.664 415.382 449.582 413.27 449.582 410.624C449.582 407.979 448.643 405.888 446.766 404.352C444.931 402.774 442.456 401.984 439.342 401.984C437.336 401.984 435.544 402.368 433.966 403.136C432.43 403.904 431.214 404.95 430.318 406.272C429.464 407.595 429.038 409.067 429.038 410.688C429.038 412.267 429.443 413.718 430.254 415.04C431.107 416.32 432.323 417.366 433.902 418.176C435.523 418.944 437.443 419.328 439.662 419.328Z" fill="white"></path>
  <path d="M478.906 424.512C475.364 424.512 472.207 423.616 469.434 421.824C466.703 419.99 464.548 417.344 462.97 413.888C461.391 410.432 460.602 406.336 460.602 401.6C460.602 396.864 461.391 392.768 462.97 389.312C464.548 385.856 466.703 383.232 469.434 381.44C472.207 379.606 475.364 378.688 478.906 378.688C482.404 378.688 485.519 379.606 488.25 381.44C491.023 383.232 493.199 385.856 494.778 389.312C496.356 392.768 497.146 396.864 497.146 401.6C497.146 406.336 496.356 410.432 494.778 413.888C493.199 417.344 491.023 419.99 488.25 421.824C485.519 423.616 482.404 424.512 478.906 424.512ZM478.906 418.816C482.49 418.816 485.348 417.344 487.482 414.4C489.658 411.456 490.746 407.19 490.746 401.6C490.746 396.011 489.658 391.744 487.482 388.8C485.348 385.856 482.49 384.384 478.906 384.384C475.279 384.384 472.378 385.856 470.202 388.8C468.068 391.744 467.002 396.011 467.002 401.6C467.002 407.19 468.068 411.456 470.202 414.4C472.378 417.344 475.279 418.816 478.906 418.816Z" fill="white"></path>
  <path d="M521.593 424.512C518.052 424.512 514.895 423.616 512.121 421.824C509.391 419.99 507.236 417.344 505.657 413.888C504.079 410.432 503.289 406.336 503.289 401.6C503.289 396.864 504.079 392.768 505.657 389.312C507.236 385.856 509.391 383.232 512.121 381.44C514.895 379.606 518.052 378.688 521.593 378.688C525.092 378.688 528.207 379.606 530.937 381.44C533.711 383.232 535.887 385.856 537.465 389.312C539.044 392.768 539.833 396.864 539.833 401.6C539.833 406.336 539.044 410.432 537.465 413.888C535.887 417.344 533.711 419.99 530.937 421.824C528.207 423.616 525.092 424.512 521.593 424.512ZM521.593 418.816C525.177 418.816 528.036 417.344 530.169 414.4C532.345 411.456 533.433 407.19 533.433 401.6C533.433 396.011 532.345 391.744 530.169 388.8C528.036 385.856 525.177 384.384 521.593 384.384C517.967 384.384 515.065 385.856 512.889 388.8C510.756 391.744 509.689 396.011 509.689 401.6C509.689 407.19 510.756 411.456 512.889 414.4C515.065 417.344 517.967 418.816 521.593 418.816Z" fill="white"></path>
  <g opacity="0.2">
    <path d="M0 0V29.9929L570.143 600H618.107L17.0805 0H0Z" fill="#E7EEF9"></path>
    <path d="M800 600V580.007L219.782 0H55L655.143 600H800Z" fill="#E7EEF9"></path>
  </g>
</svg>
