<?xml version="1.0" encoding="UTF-8"?>
<svg xmlns="http://www.w3.org/2000/svg" width="131" height="132" viewBox="0 0 131 132" fill="" data-library="gosweb_icons_1" data-icon="doc_130" data-color="">
  <circle cx="59.8025" cy="84.0109" r="27.0833" transform="rotate(0.169302 59.8025 84.0109)" fill="#FFE073"></circle>
  <path d="M114.312 28.5638C114.253 28.508 102.599 17.3278 102.599 17.3278C102.154 16.8978 101.693 16.4534 100.83 16.4509L53.7794 16.3118C52.4051 16.3078 51.2836 17.4224 51.2796 18.7967L51.257 26.4499L34.6656 29.2436C33.3357 29.4728 32.4381 30.7422 32.6644 32.0708L33.4915 36.9804C28.0961 38.7783 22.5567 40.6318 17.2088 42.535C15.9451 42.9928 15.2785 44.3945 15.7252 45.6657L26.2647 75.2381C26.4767 75.8332 27.0358 76.205 27.6334 76.2068C27.797 76.2073 27.9638 76.18 28.1268 76.1218C28.8851 75.8515 29.2807 75.0179 29.0105 74.2596L18.6269 45.1246C23.6653 43.3374 28.8828 41.5891 33.9818 39.8896L38.9035 69.1012L44.5668 102.743C44.7714 103.931 45.8122 104.778 46.9899 104.782C47.1232 104.782 47.2585 104.772 47.3942 104.75L63.0097 102.117L75.2119 100.063L56.8496 106.602L42.3695 111.76L31.2281 80.4808C30.9581 79.7225 30.1246 79.3269 29.3661 79.5969C28.6078 79.8669 28.2122 80.7006 28.4822 81.4589L39.7817 113.182C40.1431 114.18 41.0853 114.802 42.0832 114.805C42.3589 114.806 42.6391 114.759 42.9122 114.661L57.8273 109.348L91.6946 97.2878L98.161 96.1991L112.438 96.2413C113.813 96.2453 114.934 95.1281 114.938 93.7507L115.126 30.2085C115.129 29.3361 114.657 28.8897 114.312 28.5638ZM110.45 28.8975L103.157 28.876L102.976 28.8762C102.627 28.8775 101.809 28.8811 101.602 28.6745C101.555 28.6268 101.499 28.4676 101.5 28.1725L101.506 20.3186L110.45 28.8975ZM112.025 93.3247L53.9748 93.1532L54.0587 64.7489C54.0611 63.944 53.4105 63.2895 52.6056 63.2871C51.8007 63.2847 51.1462 63.9354 51.1438 64.7403L51.0587 93.5616C51.0546 94.9388 52.1694 96.0628 53.5437 96.0669L80.9074 96.1477L62.5254 99.2427L47.3636 101.799L41.7779 68.6169L35.6152 32.0395L51.248 29.4072L51.1636 57.9777C51.1612 58.7826 51.8119 59.437 52.6168 59.4394C53.4217 59.4418 54.0762 58.7912 54.0785 57.9863L54.1931 19.2278L98.5921 19.359L98.5851 28.1671C98.582 29.2348 98.9041 30.0993 99.5426 30.7371C100.524 31.7169 101.914 31.789 102.778 31.7915C102.852 31.7918 102.922 31.7914 102.988 31.7912L112.207 31.8178L112.025 93.3247Z" fill="#273350" stroke="#273350"></path>
  <path d="M61.1593 38.9653C61.1569 39.7702 61.8075 40.4247 62.6124 40.427L104.283 40.5502C105.088 40.5525 105.743 39.9019 105.745 39.097C105.747 38.2921 105.097 37.6376 104.292 37.6353L62.621 37.5121C61.8161 37.5097 61.1616 38.1604 61.1593 38.9653Z" fill="#273350" stroke="#273350"></path>
  <path d="M104.262 47.9868L62.5908 47.8637C61.7859 47.8613 61.1314 48.5119 61.129 49.3168C61.1266 50.1217 61.7772 50.7762 62.5821 50.7786L104.253 50.9017C105.058 50.9041 105.712 50.2535 105.715 49.4486C105.717 48.6437 105.067 47.9892 104.262 47.9868Z" fill="#273350" stroke="#273350"></path>
  <path d="M104.231 58.3423L62.56 58.2192C61.7551 58.2168 61.1006 58.8674 61.0982 59.6723C61.0959 60.4772 61.7465 61.1317 62.5514 61.1341L104.222 61.2572C105.027 61.2596 105.682 60.609 105.684 59.804C105.686 58.9991 105.036 58.3447 104.231 58.3423Z" fill="#273350" stroke="#273350"></path>
  <path d="M104.2 68.6978L62.5292 68.5746C61.7243 68.5722 61.0698 69.2229 61.0675 70.0278C61.0651 70.8327 61.7157 71.4872 62.5206 71.4895L104.191 71.6127C104.996 71.615 105.651 70.9644 105.653 70.1595C105.656 69.3546 105.005 68.7001 104.2 68.6978Z" fill="#273350" stroke="#273350"></path>
  <path d="M104.17 79.0493L62.499 78.9262C61.6941 78.9238 61.0396 79.5744 61.0372 80.3793C61.0348 81.1842 61.6854 81.8387 62.4903 81.8411L104.161 81.9642C104.966 81.9666 105.621 81.316 105.623 80.5111C105.625 79.7062 104.975 79.0517 104.17 79.0493Z" fill="#273350" stroke="#273350"></path>
</svg>
