<?xml version="1.0" encoding="UTF-8"?>
<svg xmlns="http://www.w3.org/2000/svg" width="132" height="131" viewBox="0 0 132 131" fill="" data-library="gosweb_icons_1" data-icon="simple_book_130" data-color="">
  <circle cx="41.9612" cy="62.9544" r="26.0417" transform="rotate(0.169302 41.9612 62.9544)" fill="#FFE073"></circle>
  <path d="M108.872 51.463L115.659 45.2226L62.2291 30.8337L61.809 30.7207L20.0778 65.724L20.0403 78.4147L71.7254 101.584L115.92 63.0054L109.356 62.3647L108.872 51.463ZM62.2143 32.5006L112.394 46.0147L70.6121 84.4324L22.471 65.8375L62.2143 32.5006ZM21.6858 77.3803L21.7156 67.2786L70.0011 85.9288L70.6907 99.3472L21.6858 77.3803ZM72.3125 98.9124L71.6343 85.7026L107.293 52.9157L107.956 67.8L72.3125 98.9124ZM112.027 64.2449L109.537 66.4182L109.429 63.9911L112.027 64.2449Z" fill="#273350" stroke="#273350" stroke-width="2.4"></path>
</svg>
